<svg id="Layer_1" data-name="Layer 1" xmlns="http://www.w3.org/2000/svg" viewBox="0 0 569.22 412.47"><defs><style>.cls-1{fill:#01028f;}.cls-2{fill:#e1251b;stroke-width:2px;}.cls-2,.cls-6{stroke:#e1251b;stroke-miterlimit:10;}.cls-3{fill:#fff;}.cls-4,.cls-5{fill:#03074c;}.cls-5{font-size:29.14px;font-family:Montserrat-ExtraBold, Montserrat;font-weight:800;}.cls-6{fill:none;stroke-linecap:round;stroke-width:5px;}</style></defs><title>Naj-real-estate-logo</title><polygon class="cls-1" points="264.56 0 264.56 175.65 238.48 175.65 223.37 158.91 223.13 159.17 222.9 158.91 207.45 175.65 197.6 175.65 197.6 42.71 264.56 0"/><polygon class="cls-1" points="298.32 0 341.56 31.78 341.56 175.65 298.32 175.65 298.32 0"/><polygon class="cls-1" points="388.33 137.51 388.33 227.71 373.23 227.71 358.13 212.58 358.13 117.59 388.33 137.51"/><polygon class="cls-1" points="181.99 104.28 181.99 203.24 171.69 214.4 151.82 214.4 151.82 124.2 181.99 104.28"/><polygon class="cls-2" points="560.82 285.1 560.82 299.92 443.94 299.92 415.59 270.75 416.17 270.75 393.5 248.02 393.21 247.73 373.23 227.71 358.13 212.58 321.67 176.05 287.13 209.94 275.98 194.84 321.67 150.03 358.13 186.56 388.33 216.81 454.38 283.31 560.82 285.1"/><polygon class="cls-2" points="378.71 299.92 350.77 299.92 238.48 175.65 223.37 158.91 223.13 159.17 222.9 158.91 207.45 175.65 181.99 203.24 171.69 214.4 114.5 276.36 114.97 276.36 93.21 299.92 9.34 299.92 9.34 282.88 80.75 282.88 151.82 205.88 181.99 173.19 197.6 156.29 222.9 128.88 264.56 174.97 285.58 198.23 300.88 215.17 301.04 215.06 312.19 227.24 311.95 227.42 347.08 266.29 361.61 281.24 378.71 299.92"/><path class="cls-3" d="M655.41,631.44" transform="translate(-255.39 -318.66)"/><rect class="cls-1" x="205.14" y="212.64" width="18.47" height="18.47"/><rect class="cls-1" x="227.21" y="212.64" width="18.47" height="18.47"/><rect class="cls-1" x="205.14" y="234.5" width="18.47" height="18.47"/><rect class="cls-1" x="227.21" y="234.5" width="18.47" height="18.47"/><path class="cls-4" d="M302.57,641.4H314v42.13H303.35L285.5,660.09v23.44H274V641.4h10.7l17.85,23.5Z" transform="translate(-255.39 -318.66)"/><path class="cls-4" d="M351.91,683.53l-2.47-6.73h-17l-2.53,6.73H317.05l18-42.13h12.86l17.37,42.13Zm-16-15.87h10.22l-5.05-13.76Z" transform="translate(-255.39 -318.66)"/><path class="cls-4" d="M391.12,680.25q-4.11,3.82-11.21,3.82a20.21,20.21,0,0,1-15.56-7l5.71-8.24a17.66,17.66,0,0,0,4.65,3.55,9.56,9.56,0,0,0,4.18,1.2,3.5,3.5,0,0,0,2.73-1.08,4.52,4.52,0,0,0,1-3.19V651.37H368.31v-10h26.93v28.18Q395.24,676.44,391.12,680.25Z" transform="translate(-255.39 -318.66)"/><path class="cls-4" d="M439,683.53l-5.59-11.36h-6.61v11.36h-12.5V641.4h19.65q8.47,0,13.13,3.9t4.66,11.06a16.7,16.7,0,0,1-1.83,8,13.73,13.73,0,0,1-5.26,5.38l8.53,13.76Zm-12.2-21h7.15a6,6,0,0,0,4.36-1.5,5.79,5.79,0,0,0,1.53-4.33,5.59,5.59,0,0,0-1.53-4.23,6.07,6.07,0,0,0-4.36-1.47h-7.15Z" transform="translate(-255.39 -318.66)"/><path class="cls-4" d="M457.86,641.4h34.43V651H470.36v6.61h19.89v9.61H470.36v6.67H492.9v9.62h-35Z" transform="translate(-255.39 -318.66)"/><path class="cls-4" d="M529.73,683.53l-2.46-6.73h-17l-2.52,6.73H494.88l18-42.13h12.86l17.37,42.13Zm-16-15.87H524l-5-13.76Z" transform="translate(-255.39 -318.66)"/><path class="cls-4" d="M546.14,641.4h12.5v31.67h17.67v10.46H546.14Z" transform="translate(-255.39 -318.66)"/><path class="cls-4" d="M593.32,641.4h34.43V651H605.82v6.61h19.89v9.61H605.82v6.67h22.53v9.62h-35Z" transform="translate(-255.39 -318.66)"/><path class="cls-4" d="M657.26,651.61a21.38,21.38,0,0,0-6.61-1.38,4.49,4.49,0,0,0-2.55.63,2.09,2.09,0,0,0-.94,1.84,2.86,2.86,0,0,0,1.81,2.61,32.48,32.48,0,0,0,5.71,2,55.77,55.77,0,0,1,7.33,2.55,13.48,13.48,0,0,1,5,3.93,10.75,10.75,0,0,1,2.14,7,11.89,11.89,0,0,1-2.31,7.42,13.94,13.94,0,0,1-6.25,4.54,24.6,24.6,0,0,1-8.81,1.5,33.9,33.9,0,0,1-10.85-1.83,30.57,30.57,0,0,1-9.4-5l4.69-9.5a27.71,27.71,0,0,0,7.78,4.66,21.41,21.41,0,0,0,7.9,1.89,5.61,5.61,0,0,0,3.19-.78,2.53,2.53,0,0,0,1.14-2.22,2.92,2.92,0,0,0-1.87-2.68,31.73,31.73,0,0,0-5.76-1.95,52.92,52.92,0,0,1-7.28-2.37,12.93,12.93,0,0,1-5-3.82,10.38,10.38,0,0,1-2.11-6.79,11.9,11.9,0,0,1,2.17-7.12,13.56,13.56,0,0,1,6.1-4.66,23.93,23.93,0,0,1,9.16-1.62,34,34,0,0,1,9.44,1.35,30.9,30.9,0,0,1,8.17,3.58L664.65,655A41,41,0,0,0,657.26,651.61Z" transform="translate(-255.39 -318.66)"/><path class="cls-4" d="M670.54,641.4h37v10H695.3v32.16H682.74V651.37h-12.2Z" transform="translate(-255.39 -318.66)"/><path class="cls-4" d="M737.61,683.53l-2.46-6.73h-17l-2.53,6.73H702.75l18-42.13h12.86L751,683.53Zm-16-15.87h10.21l-5.05-13.76Z" transform="translate(-255.39 -318.66)"/><path class="cls-4" d="M746.14,641.4h37v10H770.9v32.16H758.34V651.37h-12.2Z" transform="translate(-255.39 -318.66)"/><path class="cls-4" d="M787.07,641.4h34.44V651H799.57v6.61h19.89v9.61H799.57v6.67h22.54v9.62h-35Z" transform="translate(-255.39 -318.66)"/><text class="cls-5" transform="translate(223.61 398.83)">LIMITED</text><line class="cls-6" x1="2.5" y1="388.78" x2="214.37" y2="388.78"/><line class="cls-6" x1="354.84" y1="388.78" x2="566.72" y2="388.78"/></svg>